<?xml version="1.0" standalone="no"?>
<!DOCTYPE svg PUBLIC "-//W3C//DTD SVG 20010904//EN"
 "http://www.w3.org/TR/2001/REC-SVG-20010904/DTD/svg10.dtd">
<svg version="1.0" xmlns="http://www.w3.org/2000/svg"
 width="316.000000pt" height="178.000000pt" viewBox="0 0 316.000000 178.000000"
 preserveAspectRatio="xMidYMid meet">

<g transform="translate(0.000000,178.000000) scale(0.100000,-0.100000)"
fill="#000000" stroke="none">
<path d="M1043 1342 c-281 -207 -511 -378 -509 -379 2 -3 237 53 276 65 14 5
189 129 388 275 200 147 367 267 372 267 4 0 133 -92 286 -205 154 -113 282
-205 287 -205 4 0 7 81 7 180 l0 181 63 -3 62 -3 2 -230 c2 -198 4 -231 18
-241 13 -10 152 -47 305 -82 8 -2 -38 36 -102 84 l-118 87 0 244 0 243 -170 0
-170 0 0 -115 c0 -63 -2 -115 -6 -115 -3 0 -106 74 -230 165 -124 91 -230 165
-237 164 -7 0 -242 -170 -524 -377z"/>
<path d="M1480 1300 l0 -40 40 0 40 0 0 40 0 40 -40 0 -40 0 0 -40z"/>
<path d="M1580 1300 l0 -40 40 0 40 0 0 40 0 40 -40 0 -40 0 0 -40z"/>
<path d="M1480 1200 l0 -40 40 0 40 0 0 40 0 40 -40 0 -40 0 0 -40z"/>
<path d="M1580 1200 l0 -40 40 0 40 0 0 40 0 40 -40 0 -40 0 0 -40z"/>
<path d="M1205 995 c-394 -37 -759 -128 -1053 -265 -51 -24 -91 -45 -89 -46 2
-2 37 7 77 21 250 85 625 160 980 197 164 17 724 17 895 0 305 -30 651 -96
900 -171 72 -22 139 -42 150 -45 11 -4 -25 16 -80 44 -197 98 -543 196 -840
239 -295 43 -651 52 -940 26z"/>
<path d="M827 679 c-148 -25 -179 -231 -46 -299 110 -57 239 19 239 140 0 107
-86 178 -193 159z m107 -50 c32 -25 56 -69 56 -104 0 -100 -104 -165 -191
-120 -84 44 -91 178 -11 227 39 25 113 23 146 -3z"/>
<path d="M430 520 c0 -148 1 -161 18 -158 14 3 17 16 20 81 l3 77 79 0 80 0 0
-80 c0 -64 3 -80 15 -80 13 0 15 24 15 160 0 136 -2 160 -15 160 -12 0 -15
-14 -15 -65 l0 -65 -80 0 -79 0 -3 62 c-2 50 -6 63 -20 66 -17 3 -18 -10 -18
-158z"/>
<path d="M1052 550 l3 -132 34 -30 c30 -27 39 -30 83 -26 36 4 57 12 76 32 26
25 27 31 31 156 3 127 2 130 -18 130 -20 0 -21 -5 -21 -123 0 -116 -1 -125
-23 -145 -27 -25 -74 -29 -103 -8 -17 13 -20 31 -24 143 -4 114 -7 128 -23
131 -17 4 -18 -5 -15 -128z"/>
<path d="M1345 655 c-48 -47 -29 -92 55 -135 41 -21 61 -37 66 -54 17 -71 -85
-106 -119 -41 -15 30 -43 19 -32 -14 8 -26 54 -51 95 -51 44 0 90 47 90 92 0
45 -14 63 -80 95 -57 29 -74 59 -50 89 16 18 59 18 79 0 12 -11 21 -12 31 -5
13 8 11 13 -9 29 -34 29 -95 27 -126 -5z"/>
<path d="M1536 672 c-7 -11 -7 -272 0 -294 5 -15 18 -18 85 -18 64 0 79 3 79
15 0 12 -14 15 -65 15 l-65 0 0 65 0 65 60 0 c47 0 60 3 60 15 0 12 -13 15
-60 15 l-60 0 0 50 0 50 65 0 c51 0 65 3 65 15 0 12 -15 15 -79 15 -44 0 -82
-4 -85 -8z"/>
<path d="M1910 658 c-57 -39 -75 -72 -75 -138 0 -92 54 -150 147 -157 63 -5
102 12 107 47 3 25 3 25 -18 6 -12 -11 -41 -21 -69 -24 -44 -4 -52 -1 -85 27
-51 45 -64 90 -42 148 29 75 113 105 185 68 28 -15 30 -14 30 3 0 45 -123 58
-180 20z"/>
<path d="M2130 520 l0 -160 60 0 c46 0 60 3 60 14 0 10 -14 16 -42 18 l-43 3
-3 143 c-2 117 -5 142 -17 142 -13 0 -15 -26 -15 -160z"/>
<path d="M2270 554 c0 -69 5 -134 10 -145 15 -27 62 -49 106 -49 28 0 44 8 70
34 l34 34 0 126 c0 105 -2 126 -15 126 -12 0 -15 -19 -15 -110 0 -146 -17
-180 -86 -180 -14 0 -36 11 -49 25 -24 23 -25 30 -25 145 0 100 -2 120 -15
120 -13 0 -15 -21 -15 -126z"/>
<path d="M2532 523 l3 -158 34 -3 c124 -12 195 75 122 148 -24 24 -26 31 -15
41 15 12 19 55 8 84 -10 25 -58 45 -109 45 l-46 0 3 -157z m108 107 c24 -24
25 -38 4 -68 -10 -14 -25 -22 -45 -22 -29 0 -29 1 -29 55 0 52 1 55 25 55 14
0 34 -9 45 -20z m30 -140 c11 -11 20 -26 20 -34 0 -27 -35 -56 -77 -62 l-43
-7 0 62 0 61 40 0 c27 0 47 -7 60 -20z"/>
<path d="M1430 176 c0 -71 4 -116 10 -116 6 0 10 43 10 109 0 63 -4 112 -10
116 -6 4 -10 -35 -10 -109z"/>
<path d="M1010 166 c0 -64 4 -106 10 -106 6 0 10 21 10 48 l1 47 20 -27 c43
-57 58 -73 64 -66 4 4 -5 23 -20 42 l-28 36 27 25 c46 43 24 90 -48 102 l-36
6 0 -107z m75 38 c0 -24 -5 -30 -27 -32 -26 -3 -28 -1 -28 31 0 41 6 48 33 38
16 -6 22 -17 22 -37z"/>
<path d="M1550 165 l0 -105 55 0 c30 0 55 5 55 10 0 6 -20 10 -45 10 l-45 0 0
40 0 40 45 0 c25 0 45 5 45 10 0 6 -21 10 -46 10 -45 0 -45 0 -42 33 3 30 6
32 46 35 61 5 52 22 -13 22 l-55 0 0 -105z"/>
<path d="M1790 211 c0 -11 -6 -21 -12 -24 -10 -4 -10 -7 0 -18 6 -7 12 -35 12
-61 0 -26 5 -48 10 -48 6 0 10 24 10 54 0 34 5 57 13 60 10 5 10 7 0 12 -7 3
-13 14 -13 25 0 10 -4 19 -10 19 -5 0 -10 -9 -10 -19z"/>
<path d="M1990 212 c0 -10 -5 -23 -12 -30 -9 -9 -9 -12 0 -12 8 0 12 -19 12
-55 0 -30 5 -55 10 -55 6 0 10 24 10 54 0 34 5 57 13 60 10 5 10 7 0 12 -7 3
-13 14 -13 25 0 10 -4 19 -10 19 -5 0 -10 -8 -10 -18z"/>
<path d="M1157 172 c-25 -28 -22 -87 5 -106 12 -9 30 -16 39 -16 23 0 65 35
52 43 -6 4 -16 0 -23 -8 -15 -18 -42 -19 -58 -3 -26 26 -13 38 38 38 56 0 65
15 30 50 -25 25 -62 26 -83 2z m71 -14 c21 -21 13 -28 -28 -28 -22 0 -40 4
-40 8 0 14 23 32 40 32 9 0 21 -5 28 -12z"/>
<path d="M1290 170 c-44 -44 -8 -129 48 -115 15 3 35 6 45 6 14 0 17 10 17 65
0 36 -4 64 -10 64 -5 0 -10 -5 -10 -10 0 -7 -6 -7 -19 0 -29 15 -49 12 -71
-10z m80 -21 c14 -26 6 -65 -16 -73 -43 -17 -78 30 -54 73 14 28 56 28 70 0z"/>
<path d="M1690 171 c-8 -17 -7 -24 10 -41 11 -11 25 -20 30 -20 13 0 13 -27 0
-35 -6 -4 -18 -1 -26 6 -8 6 -18 9 -22 5 -8 -9 26 -36 44 -36 7 0 20 10 28 22
18 25 7 53 -24 63 -11 3 -20 13 -20 21 0 11 6 13 21 9 15 -5 20 -3 17 6 -7 23
-45 22 -58 0z"/>
<path d="M1847 172 c-41 -45 -3 -131 51 -117 15 3 35 6 45 6 14 0 17 10 17 65
0 36 -4 64 -10 64 -5 0 -10 -5 -10 -10 0 -7 -6 -7 -19 0 -29 15 -56 12 -74 -8z
m77 -18 c30 -30 9 -84 -33 -84 -25 0 -41 20 -41 50 0 47 42 66 74 34z"/>
<path d="M2050 170 c-38 -38 -13 -120 38 -120 24 0 64 29 56 41 -4 6 -14 3
-25 -7 -16 -14 -24 -15 -44 -6 -44 20 -31 42 25 42 42 0 50 3 50 18 0 25 -31
52 -58 52 -12 0 -31 -9 -42 -20z m68 -12 c20 -20 14 -28 -21 -28 -40 0 -51 8
-36 27 14 16 41 17 57 1z"/>
<path d="M622 113 c37 -2 100 -2 140 0 40 1 10 3 -67 3 -77 0 -110 -1 -73 -3z"/>
<path d="M2403 113 c37 -2 97 -2 135 0 37 2 6 3 -68 3 -74 0 -105 -1 -67 -3z"/>
</g>
</svg>
