<svg id="Livello_1" data-name="Livello 1" xmlns="http://www.w3.org/2000/svg" viewBox="0 0 229.28 220.89"><path d="M40.18,40.25a12.5,12.5,0,0,1,12.5-12.37c1.45,0,2.9,0,4.35,0H182.37c4.34,0,8.68-.05,13,0a12.51,12.51,0,0,1,12.41,12.4c0,1.24,0,2.48,0,3.72V168.83c0,4.71,0,9.42,0,14.13a12.5,12.5,0,0,1-11.68,12.52c-1.23.06-2.47,0-3.7,0H68.28c-5.12,0-10.25,0-15.37,0a12.55,12.55,0,0,1-12.3-9.13c-.82-3-.43-6.5-.43-9.57v-42a1.88,1.88,0,0,0-3.75,0v43.1c0,3.77-.29,7.64,1.15,11.21a16.35,16.35,0,0,0,15.24,10.15H193a26.22,26.22,0,0,0,6.31-.47A16.34,16.34,0,0,0,211.55,183c0-1.48,0-3,0-4.45V43.1a39.08,39.08,0,0,0-.11-4.59,16.31,16.31,0,0,0-16.06-14.39c-1.33,0-2.65,0-4,0H64.93c-4.12,0-8.25,0-12.38,0A16.33,16.33,0,0,0,36.43,40.25c0,2.41,3.72,2.41,3.75,0Z" fill="#274c77"/><path d="M14,138.52l19.67-12.76L65,105.45l7.13-4.62c3-1.92.2-6.68-2.78-4.75L49.66,108.84l-31.3,20.31-7.13,4.62c-3,1.92-.2,6.68,2.78,4.75Z" fill="#ffd60a"/><path d="M129.79,133.77,110.39,121,79.62,100.77l-7.08-4.65c-3-2-5.72,2.81-2.77,4.75l19.39,12.75,30.78,20.25,7.07,4.65c3,1.95,5.72-2.81,2.78-4.75Z" fill="#ffd60a"/><text transform="translate(47.35 172.65)" font-size="22" fill="#274c77" font-family="Consolas-Bold, Consolas" font-weight="700">House Hunters</text></svg>